<?xml version="1.0" encoding="UTF-8"?>
<svg width="400" height="300" viewBox="0 0 400 300" fill="none" xmlns="http://www.w3.org/2000/svg">
  <!-- Background -->
  <rect width="400" height="300" fill="#F3F4F6" rx="12"/>
  
  <!-- Seller Character -->
  <circle cx="200" cy="120" r="50" fill="#FCD34D"/>
  <circle cx="185" cy="110" r="4" fill="#1F2937"/>
  <circle cx="215" cy="110" r="4" fill="#1F2937"/>
  <path d="M190 140C190 140 205 150 210 150C215 150 230 140 230 140" stroke="#1F2937" stroke-width="2" stroke-linecap="round"/>
  
  <!-- Body -->
  <path d="M200 170C200 170 170 230 170 250C170 270 230 270 230 250C230 230 200 170 200 170Z" fill="#3B82F6"/>
  
  <!-- Arms -->
  <path d="M160 180C160 180 140 160 130 170C120 180 140 200 150 190" fill="#FCD34D"/>
  <path d="M240 180C240 180 260 160 270 170C280 180 260 200 250 190" fill="#FCD34D"/>
  
  <!-- Laptop -->
  <rect x="150" y="190" width="100" height="60" rx="5" fill="#E5E7EB"/>
  <rect x="155" y="195" width="90" height="45" rx="2" fill="#1F2937"/>
  <rect x="170" y="255" width="60" height="5" rx="2" fill="#9CA3AF"/>
  
  <!-- Products -->
  <circle cx="80" cy="100" r="15" fill="#10B981"/>
  <path d="M80 115L85 125H75L80 115Z" fill="#10B981"/>
  <rect x="70" y="125" width="20" height="5" rx="2" fill="#A7F3D0"/>
  
  <circle cx="320" cy="100" r="15" fill="#F59E0B"/>
  <path d="M320 115L325 125H315L320 115Z" fill="#F59E0B"/>
  <rect x="310" y="125" width="20" height="5" rx="2" fill="#FDE68A"/>
  
  <circle cx="100" cy="200" r="12" fill="#EF4444"/>
  <path d="M100 212L105 220H95L100 212Z" fill="#EF4444"/>
  <rect x="92" y="220" width="16" height="4" rx="2" fill="#FECACA"/>
  
  <!-- Shopping elements -->
  <path d="M300 200C300 200 310 190 315 195C320 200 310 210 305 205" fill="#8B5CF6"/>
  <path d="M305 205L315 215" stroke="#8B5CF6" stroke-width="2"/>
  
  <!-- Chart elements -->
  <path d="M50 250H70V220H50V250Z" fill="#3B82F6"/>
  <path d="M80 250H100V200H80V250Z" fill="#3B82F6"/>
  <path d="M110 250H130V180H110V250Z" fill="#3B82F6"/>
  <path d="M140 250H160V210H140V250Z" fill="#3B82F6"/>
  
  <!-- Money bag -->
  <path d="M330 230C330 230 340 220 340 230C340 240 330 250 320 250C310 250 300 240 300 230C300 220 310 230 310 230" fill="#10B981"/>
  <path d="M315 230C315 230 325 220 325 230" stroke="#065F46" stroke-width="2"/>
  
  <!-- Stars -->
  <path d="M350 50L355 60H365L357 65L360 75L350 70L340 75L345 65L335 60H345L350 50Z" fill="#F59E0B"/>
  <path d="M30 70L33 75H38L35 80L38 85H33L30 90L27 85H22L25 80L22 75H27L30 70Z" fill="#3B82F6"/>
</svg>